<svg width="18" height="18" viewBox="0 0 18 18" fill="none" xmlns="http://www.w3.org/2000/svg">
<path opacity="0.2" d="M4.5 14.25H6.75V9.75H11.25V14.25H13.5V7.5L9 4.125L4.5 7.5V14.25ZM4.5 15.75C4.0875 15.75 3.7345 15.6033 3.441 15.3098C3.147 15.0158 3 14.6625 3 14.25V7.5C3 7.2625 3.05325 7.0375 3.15975 6.825C3.26575 6.6125 3.4125 6.4375 3.6 6.3L8.1 2.925C8.2375 2.825 8.38125 2.75 8.53125 2.7C8.68125 2.65 8.8375 2.625 9 2.625C9.1625 2.625 9.31875 2.65 9.46875 2.7C9.61875 2.75 9.7625 2.825 9.9 2.925L14.4 6.3C14.5875 6.4375 14.7345 6.6125 14.841 6.825C14.947 7.0375 15 7.2625 15 7.5V14.25C15 14.6625 14.8533 15.0158 14.5598 15.3098C14.2658 15.6033 13.9125 15.75 13.5 15.75H9.75V11.25H8.25V15.75H4.5Z" fill="black"/>
</svg>
