<svg width="93" height="95" viewBox="0 0 93 95" fill="none" xmlns="http://www.w3.org/2000/svg">
<path d="M0.5 90.2962V92.1538L1.43245 90.5472L15.288 66.6732H81.5003C87.6385 66.6732 92.5 60.9819 92.5 54.1121V13.9071C92.5 7.03671 87.6386 1.34546 81.5003 1.34546H81.3596H81.2183H81.0761H80.9333H80.7897H80.6454H80.5004H80.3546H80.2081H80.061H79.9131H79.7645H79.6152H79.4652H79.3146H79.1632H79.0112H78.8584H78.705H78.551H78.3962H78.2408H78.0848H77.9281H77.7707H77.6127H77.4541H77.2948H77.1348H76.9743H76.8131H76.6513H76.4889H76.3258H76.1622H75.9979H75.833H75.6676H75.5015H75.3349H75.1676H74.9998H74.8314H74.6625H74.4929H74.3228H74.1521H73.9809H73.8091H73.6368H73.4639H73.2904H73.1165H72.942H72.7669H72.5914H72.4153H72.2387H72.0615H71.8839H71.7058H71.5271H71.348H71.1683H70.9882H70.8076H70.6265H70.4449H70.2628H70.0803H69.8973H69.7138H69.5299H69.3455H69.1607H68.9754H68.7897H68.6036H68.417H68.2299H68.0425H67.8546H67.6663H67.4776H67.2885H67.0989H66.909H66.7187H66.5279H66.3368H66.1453H65.9534H65.7611H65.5685H65.3754H65.182H64.9883H64.7942H64.5997H64.4049H64.2097H64.0142H63.8183H63.6221H63.4256H63.2288H63.0316H62.8341H62.6363H62.4381H62.2397H62.041H61.8419H61.6426H61.443H61.2431H61.0429H60.8424H60.6416H60.4406H60.2393H60.0378H59.8359H59.6339H59.4315H59.229H59.0261H58.8231H58.6198H58.4162H58.2125H58.0085H57.8043H57.5999H57.3953H57.1904H56.9854H56.7801H56.5747H56.369H56.1632H55.9572H55.751H55.5447H55.3381H55.1314H54.9245H54.7175H54.5103H54.303H54.0955H53.8879H53.6801H53.4722H53.2641H53.056H52.8477H52.6392H52.4307H52.2221H52.0133H51.8044H51.5955H51.3864H51.1773H50.968H50.7587H50.5493H50.3398H50.1303H49.9206H49.7109H49.5012H49.2914H49.0815H48.8716H48.6617H48.4517H48.2416H48.0316H47.8215H47.6114H47.4012H47.1911H46.9809H46.7707H46.5605H46.3503H46.1402H45.93H45.7198H45.5097H45.2995H45.0894H44.8793H44.6693H44.4593H44.2493H44.0393H43.8295H43.6196H43.4098H43.2001H42.9904H42.7809H42.5713H42.3619H42.1525H41.9432H41.734H41.5249H41.3159H41.107H40.8981H40.6894H40.4808H40.2724H40.064H39.8557H39.6476H39.4396H39.2318H39.0241H38.8165H38.6091H38.4018H38.1947H37.9877H37.7809H37.5743H37.3678H37.1615H36.9554H36.7495H36.5437H36.3382H36.1328H35.9277H35.7227H35.518H35.3134H35.1091H34.905H34.7011H34.4974H34.294H34.0908H33.8878H33.6851H33.4827H33.2804H33.0785H32.8768H32.6753H32.4741H32.2732H32.0726H31.8722H31.6721H31.4724H31.2729H31.0736H30.8747H30.6761H30.4778H30.2798H30.0822H29.8848H29.6878H29.491H29.2947H29.0986H28.9029H28.7075H28.5125H28.3178H28.1235H27.9296H27.7359H27.5427H27.3498H27.1574H26.9652H26.7735H26.5822H26.3912H26.2006H26.0105H25.8207H25.6313H25.4424H25.2539H25.0657H24.878H24.6908H24.5039H24.3175H24.1315H23.946H23.7609H23.5763H23.3921H23.2084H23.0251H22.8423H22.66H22.4781H22.2968H22.1159H21.9354H21.7555H21.5761H21.3972H21.2187H21.0408H20.8634H20.6865H20.5101H20.3342H20.1589H19.9841H19.8098H19.6361H19.4629H19.2902H19.1181H18.9466H18.7756H18.6051H18.4352H18.2659H18.0972H17.9291H17.7615H17.5945H17.4281H17.2623H17.0971H16.9325H16.7685H16.6051H16.4423H16.2802H16.1186H15.9577H15.7974H15.6378H15.4788H15.3204H15.1626H15.0056H14.8491H14.6934H14.5382H14.3838H14.23H14.0769H13.9245H13.7727H13.6217H13.4713H13.3216H13.1726H13.0243H12.8767H12.7299H12.5837H12.4383H12.2935H12.1495H12.0063H11.8637H11.7219H11.5809H11.4405H11.301H11.1621H11.0241H10.8868H10.7502H10.6145H10.4795H10.3453H10.2118H10.0792H9.9473H9.81623H9.68595H9.55647H9.4278H9.29993H9.17288H9.04664H8.92122H8.79663H8.67286H8.54993H8.42783H8.30658H8.18617H8.0666H7.94789H7.83003H7.71304H7.5969H7.48164H7.36725H7.25373H7.14109H7.02934H6.91848H6.80851H6.69943H6.59125H6.48398H6.37761H6.27216H6.16762H6.06401H5.96131H5.85955H5.75871H5.65881H5.55986H5.46184H5.36477H5.26866H5.1735H5.0793H4.98606H4.89379H4.8025H4.71218H4.62283H4.53448H4.44711H4.36073H4.27534H4.19096H4.10758H4.02521H3.94385H3.8635H3.78417H3.70587H3.6286H3.55235H3.47715H3.40298H3.32985H3.25777H3.18675H3.11678H3.04786H2.98002H2.91324H2.84753H2.78289H2.71934H2.65686H2.59548H2.53519H2.47599H2.41789H2.36089H2.30501H2.25023H2.19657H2.14402H2.0926H2.04231H1.99315H1.94512H1.89824H1.85249H1.8079H1.76445H1.72216H1.68103H1.64106H1.60226H1.56463H1.52817H1.4929H1.4588H1.42589H1.39418H1.36366H1.33434H1.30622H1.2793H1.2536H1.22912H1.20585H1.1838H1.16299H1.1434H1.12505H1.10793H1.09206H1.07744H1.06407H1.05195H1.04109H1.03149H1.02316H1.0161H1.01031H1.00581H1.00258H1.00065C1.00022 1.34546 1 1.34546 1 1.84546V1.34546H0.5V1.84546V90.2962ZM15.5001 18.4273H15.5228H15.5554H15.5889H15.6233H15.6586H15.6949H15.7321H15.7703H15.8093H15.8493H15.8902H15.932H15.9747H16.0183H16.0628H16.1082H16.1545H16.2017H16.2498H16.2987H16.3486H16.3993H16.4509H16.5033H16.5566H16.6108H16.6658H16.7217H16.7784H16.836H16.8944H16.9536H17.0137H17.0747H17.1364H17.199H17.2624H17.3266H17.3916H17.4575H17.5241H17.5916H17.6598H17.7289H17.7987H17.8693H17.9408H18.013H18.0859H18.1597H18.2342H18.3095H18.3856H18.4624H18.54H18.6183H18.6974H18.7772H18.8578H18.9391H19.0211H19.1039H19.1874H19.2717H19.3566H19.4423H19.5287H19.6158H19.7036H19.7921H19.8813H19.9712H20.0618H20.1531H20.2451H20.3378H20.4311H20.5252H20.6199H20.7152H20.8112H20.9079H21.0053H21.1033H21.2019H21.3012H21.4012H21.5018H21.603H21.7049H21.8074H21.9105H22.0142H22.1186H22.2235H22.3291H22.4353H22.5421H22.6495H22.7575H22.8661H22.9753H23.0851H23.1954H23.3064H23.4179H23.53H23.6426H23.7558H23.8696H23.984H24.0989H24.2143H24.3303H24.4469H24.564H24.6816H24.7997H24.9184H25.0376H25.1574H25.2776H25.3984H25.5197H25.6415H25.7638H25.8866H26.0099H26.1337H26.258H26.3828H26.5081H26.6338H26.76H26.8867H27.0139H27.1416H27.2697H27.3982H27.5272H27.6567H27.7866H27.917H28.0478H28.179H28.3107H28.4428H28.5754H28.7083H28.8417H28.9755H29.1097H29.2444H29.3794H29.5148H29.6507H29.7869H29.9235H30.0605H30.1979H30.3357H30.4739H30.6124H30.7513H30.8906H31.0302H31.1702H31.3106H31.4513H31.5923H31.7337H31.8755H32.0176H32.16H32.3027H32.4458H32.5892H32.733H32.877H33.0214H33.166H33.311H33.4563H33.6019H33.7478H33.894H34.0404H34.1872H34.3342H34.4815H34.6291H34.777H34.9251H35.0735H35.2221H35.3711H35.5202H35.6696H35.8193H35.9692H36.1194H36.2697H36.4204H36.5712H36.7223H36.8736H37.0251H37.1768H37.3288H37.4809H37.6333H37.7858H37.9386H38.0915H38.2447H38.398H38.5515H38.7052H38.8591H39.0131H39.1673H39.3217H39.4762H39.6309H39.7858H39.9408H40.0959H40.2512H40.4066H40.5622H40.7179H40.8737H41.0297H41.1858H41.342H41.4983H41.6547H41.8113H41.9679H42.1247H42.2815H42.4385H42.5955H42.7526H42.9098H43.0671H43.2245H43.3819H43.5394H43.697H43.8546H44.0123H44.1701H44.3279H44.4857H44.6436H44.8016H44.9595H45.1176H45.2756H45.4337H45.5918H45.7499H45.908H46.0661H46.2243H46.3825H46.5406H46.6988H46.8569H47.0151H47.1732H47.3314H47.4895H47.6475H47.8056H47.9636H48.1216H48.2796H48.4375H48.5954H48.7532H48.911H49.0687H49.2264H49.384H49.5415H49.699H49.8564H50.0137H50.1709H50.3281H50.4852H50.6422H50.7991H50.9559H51.1126H51.2691H51.4256H51.582H51.7383H51.8944H52.0504H52.2063H52.3621H52.5177H52.6732H52.8286H52.9838H53.1389H53.2938H53.4486H53.6032H53.7576H53.9119H54.0661H54.22H54.3738H54.5274H54.6808H54.834H54.9871H55.1399H55.2926H55.445H55.5973H55.7493H55.9012H56.0528H56.2042H56.3554H56.5063H56.6571H56.8076H56.9578H57.1078H57.2576H57.4072H57.5565H57.7055H57.8543H58.0028H58.1511H58.2991H58.4468H58.5942H58.7414H58.8883H59.0349H59.1812H59.3272H59.473H59.6184H59.7635H59.9084H60.0529H60.1971H60.341H60.4845H60.6278H60.7707H60.9133H61.0555H61.1974H61.339H61.4802H61.6211H61.7616H61.9018H62.0416H62.1811H62.3202H62.4589H62.5972H62.7352H62.8728H63.01H63.1468H63.2832H63.4193H63.5549H63.6901H63.8249H63.9594H64.0934H64.2269H64.3601H64.4929H64.6252H64.7571H64.8885H65.0196H65.1501H65.2803H65.41H65.5392H65.668H65.7963H65.9242H66.0516H66.1785H66.305H66.4309H66.5564H66.6815H66.806H66.93H67.0536H67.1767H67.2992H67.4212H67.5428H67.6638H67.7843H67.9043H68.0238H68.1427H68.2612H68.3791H68.4964H68.6132H68.7295H68.8452H68.9604H69.075H69.189H69.3026H69.4155H69.5278H69.6396H69.7509H69.8615H69.9716H70.081H70.1899H70.2982H70.4059H70.513H70.6195H70.7254H70.8307H70.9353H71.0394H71.1428H71.2456H71.3477H71.4493H71.5502H71.6504H71.7501H71.849H71.9473H72.045H72.142H72.2384H72.3341H72.4291H72.5235H72.6171H72.7101H72.8025H72.8941H72.985H73.0753H73.1648H73.2537H73.3419H73.4293H73.516H73.6021H73.6874H73.772H73.8558H73.939H74.0214H74.1031H74.184H74.2642H74.3436H74.4223H74.5003C76.0939 18.4273 77.5 19.9361 77.5 21.9481V46.0711C77.5 48.0824 76.094 49.5913 74.5003 49.5913H74.4223H74.3436H74.2642H74.184H74.1031H74.0214H73.939H73.8558H73.772H73.6874H73.6021H73.516H73.4293H73.3419H73.2537H73.1648H73.0753H72.985H72.8941H72.8025H72.7101H72.6171H72.5235H72.4291H72.3341H72.2384H72.142H72.045H71.9473H71.849H71.7501H71.6504H71.5502H71.4493H71.3477H71.2456H71.1428H71.0394H70.9353H70.8307H70.7254H70.6195H70.513H70.4059H70.2982H70.1899H70.081H69.9716H69.8615H69.7509H69.6396H69.5278H69.4155H69.3026H69.189H69.075H68.9604H68.8452H68.7295H68.6132H68.4964H68.3791H68.2612H68.1427H68.0238H67.9043H67.7843H67.6638H67.5428H67.4212H67.2992H67.1767H67.0536H66.93H66.806H66.6815H66.5564H66.4309H66.305H66.1785H66.0516H65.9242H65.7963H65.668H65.5392H65.41H65.2803H65.1501H65.0196H64.8885H64.7571H64.6252H64.4929H64.3601H64.2269H64.0934H63.9594H63.8249H63.6901H63.5549H63.4193H63.2832H63.1468H63.01H62.8728H62.7352H62.5972H62.4589H62.3202H62.1811H62.0416H61.9018H61.7616H61.6211H61.4802H61.339H61.1974H61.0555H60.9133H60.7707H60.6278H60.4845H60.341H60.1971H60.0529H59.9084H59.7635H59.6184H59.473H59.3272H59.1812H59.0349H58.8883H58.7414H58.5942H58.4468H58.2991H58.1511H58.0028H57.8543H57.7055H57.5565H57.4072H57.2576H57.1078H56.9578H56.8076H56.6571H56.5063H56.3554H56.2042H56.0528H55.9012H55.7493H55.5973H55.445H55.2926H55.1399H54.9871H54.834H54.6808H54.5274H54.3738H54.22H54.0661H53.9119H53.7576H53.6032H53.4486H53.2938H53.1389H52.9838H52.8286H52.6732H52.5177H52.3621H52.2063H52.0504H51.8944H51.7383H51.582H51.4256H51.2691H51.1126H50.9559H50.7991H50.6422H50.4852H50.3281H50.1709H50.0137H49.8564H49.699H49.5415H49.384H49.2264H49.0687H48.911H48.7532H48.5954H48.4375H48.2796H48.1216H47.9636H47.8056H47.6475H47.4895H47.3314H47.1732H47.0151H46.8569H46.6988H46.5406H46.3825H46.2243H46.0661H45.908H45.7499H45.5918H45.4337H45.2756H45.1176H44.9595H44.8016H44.6436H44.4857H44.3279H44.1701H44.0123H43.8546H43.697H43.5394H43.3819H43.2245H43.0671H42.9098H42.7526H42.5955H42.4385H42.2815H42.1247H41.9679H41.8113H41.6547H41.4983H41.342H41.1858H41.0297H40.8737H40.7179H40.5622H40.4066H40.2512H40.0959H39.9408H39.7858H39.6309H39.4762H39.3217H39.1673H39.0131H38.8591H38.7052H38.5515H38.398H38.2447H38.0915H37.9386H37.7858H37.6333H37.4809H37.3288H37.1768H37.0251H36.8736H36.7223H36.5712H36.4204H36.2697H36.1194H35.9692H35.8193H35.6696H35.5202H35.3711H35.2221H35.0735H34.9251H34.777H34.6291H34.4815H34.3342H34.1872H34.0404H33.894H33.7478H33.6019H33.4563H33.311H33.166H33.0214H32.877H32.733H32.5892H32.4458H32.3027H32.16H32.0176H31.8755H31.7337H31.5923H31.4513H31.3106H31.1702H31.0302H30.8906H30.7513H30.6124H30.4739H30.3357H30.1979H30.0605H29.9235H29.7869H29.6507H29.5148H29.3794H29.2444H29.1097H28.9755H28.8417H28.7083H28.5754H28.4428H28.3107H28.179H28.0478H27.917H27.7866H27.6567H27.5272H27.3982H27.2697H27.1416H27.0139H26.8867H26.76H26.6338H26.5081H26.3828H26.258H26.1337H26.0099H25.8866H25.7638H25.6415H25.5197H25.3984H25.2776H25.1574H25.0376H24.9184H24.7997H24.6816H24.564H24.4469H24.3303H24.2143H24.0989H23.984H23.8696H23.7558H23.6426H23.53H23.4179H23.3064H23.1954H23.0851H22.9753H22.8661H22.7575H22.6495H22.5421H22.4353H22.3291H22.2235H22.1186H22.0142H21.9105H21.8074H21.7049H21.603H21.5018H21.4012H21.3012H21.2019H21.1033H21.0053H20.9079H20.8112H20.7152H20.6199H20.5252H20.4311H20.3378H20.2451H20.1531H20.0618H19.9712H19.8813H19.7921H19.7036H19.6158H19.5287H19.4423H19.3566H19.2717H19.1874H19.1039H19.0211H18.9391H18.8578H18.7772H18.6974H18.6183H18.54H18.4624H18.3856H18.3095H18.2342H18.1597H18.0859H18.013H17.9408H17.8693H17.7987H17.7289H17.6598H17.5916H17.5241H17.4575H17.3916H17.3266H17.2624H17.199H17.1364H17.0747H17.0137H16.9536H16.8944H16.836H16.7784H16.7217H16.6658H16.6108H16.5566H16.5033H16.4509H16.3993H16.3486H16.2987H16.2498H16.2017H16.1545H16.1082H16.0628H16.0183H15.9747H15.932H15.8902H15.8493H15.8093H15.7703H15.7321H15.6949H15.6586H15.6233H15.5889H15.5554H15.5228H15.5001V18.4273Z" stroke="#E7E7E7"/>
</svg>
