<svg width="24" height="18" viewBox="0 0 24 18" fill="none" xmlns="http://www.w3.org/2000/svg">
<path d="M14.3307 16.7191C14.0225 16.4109 13.8745 16.0385 13.8869 15.6019C13.9002 15.1653 14.061 14.7929 14.3692 14.4848L18.7223 10.1316H1.54093C1.10433 10.1316 0.738106 9.98369 0.442247 9.68783C0.147416 9.393 0 9.02729 0 8.59069C0 8.15409 0.147416 7.78786 0.442247 7.49201C0.738106 7.19717 1.10433 7.04976 1.54093 7.04976H18.7223L14.3307 2.65811C14.0225 2.34992 13.8684 1.98369 13.8684 1.55942C13.8684 1.13618 14.0225 0.770465 14.3307 0.462279C14.6388 0.154093 15.0051 0 15.4293 0C15.8526 0 16.2183 0.154093 16.5265 0.462279L23.5762 7.51204C23.7303 7.66613 23.8397 7.83307 23.9045 8.01284C23.9682 8.19262 24 8.38523 24 8.59069C24 8.79615 23.9682 8.98876 23.9045 9.16854C23.8397 9.34831 23.7303 9.51525 23.5762 9.66934L16.488 16.7576C16.2055 17.0401 15.8526 17.1814 15.4293 17.1814C15.0051 17.1814 14.6388 17.0273 14.3307 16.7191Z" fill="#16213C"/>
</svg>
