<svg width="12" height="12" viewBox="0 0 12 12" fill="none" xmlns="http://www.w3.org/2000/svg">
<path fill-rule="evenodd" clip-rule="evenodd" d="M2.54986 1.00034C2.9403 0.609579 3.57361 0.609402 3.96427 0.999945L5.81064 2.84579C6.20114 3.23618 6.20132 3.8692 5.81103 4.25981L5.1566 4.91478L7.28375 7.0416L7.93776 6.38705C8.32819 5.99629 8.9615 5.99611 9.35216 6.38665L11 8.03401C11.3905 8.4244 11.3907 9.05742 11.0004 9.44803L9.91033 10.539C9.27118 11.1787 8.28726 11.3214 7.49268 10.8898C4.79397 9.42369 2.57711 7.20713 1.11036 4.50884C0.678672 3.71469 0.820678 2.73095 1.45966 2.09145L2.54986 1.00034ZM5.10363 3.55299L3.25726 1.70715L2.16706 2.79826C1.84123 3.12436 1.76873 3.62614 1.98895 4.03125C3.36351 6.55994 5.44103 8.63717 7.97004 10.0111C8.37524 10.2312 8.87699 10.1584 9.20293 9.83218L10.293 8.74122L8.64516 7.09386L7.2841 8.45605L3.74262 4.91513L5.10363 3.55299Z" fill="#F5841F"/>
</svg>
