<svg width="14" height="14" viewBox="0 0 14 14" fill="none" xmlns="http://www.w3.org/2000/svg">
<path fill-rule="evenodd" clip-rule="evenodd" d="M2.26482 0.393519C2.78888 -0.130966 3.63892 -0.131204 4.16326 0.39299L6.64149 2.87051C7.16564 3.3945 7.16588 4.24415 6.64202 4.76844L5.76363 5.64756L8.61873 8.5022L9.49655 7.62366C10.0206 7.09917 10.8706 7.09893 11.395 7.62313L13.6067 9.83423C14.1309 10.3582 14.1311 11.2079 13.6073 11.7322L12.1442 13.1965C11.2863 14.0551 9.96567 14.2467 8.89916 13.6673C5.27691 11.6995 2.3014 8.72438 0.332701 5.10269C-0.24672 4.03677 -0.0561173 2.71638 0.80153 1.85802L2.26482 0.393519ZM5.69254 3.81974L3.21431 1.34222L1.75101 2.80672C1.31369 3.24441 1.21637 3.91791 1.51195 4.46167C3.35691 7.85571 6.1454 10.6438 9.53988 12.4879C10.0837 12.7833 10.7572 12.6856 11.1947 12.2478L12.6578 10.7835L10.446 8.57235L8.6192 10.4007L3.86577 5.64802L5.69254 3.81974Z" fill="#16213C"/>
</svg>
