<svg width="24" height="24" viewBox="0 0 24 24" fill="none" xmlns="http://www.w3.org/2000/svg">
<path fill-rule="evenodd" clip-rule="evenodd" d="M5.09973 2.00068C5.8806 1.21916 7.14722 1.2188 7.92853 1.99989L11.6213 5.69157C12.4023 6.47236 12.4026 7.7384 11.6221 8.51962L10.3132 9.82957L14.5675 14.0832L15.8755 12.7741C16.6564 11.9926 17.923 11.9922 18.7043 12.7733L22 16.068C22.781 16.8488 22.7813 18.1148 22.0008 18.8961L19.8207 21.078C18.5424 22.3573 16.5745 22.6429 14.9854 21.7795C9.58794 18.8474 5.15423 14.4143 2.22072 9.01768C1.35734 7.42938 1.64136 5.46191 2.91931 4.18289L5.09973 2.00068ZM10.2073 7.10599L6.51452 3.41431L4.33411 5.59652C3.68246 6.24871 3.53746 7.25227 3.97789 8.06251C6.72701 13.1199 10.8821 17.2743 15.9401 20.0221C16.7505 20.4624 17.754 20.3168 18.4059 19.6644L20.586 17.4824L17.2903 14.1877L14.5682 16.9121L7.48524 9.83027L10.2073 7.10599Z" fill="#F5841F"/>
</svg>
