<svg width="136" height="33" viewBox="0 0 136 33" fill="none" xmlns="http://www.w3.org/2000/svg">
<g clip-path="url(#clip0_172_3578)">
<path d="M38.8951 22.1035H47.8591V19.4035H42.0811V9.23352H38.8951V22.1035Z" fill="#340E0E"/>
<path d="M53.1699 20.3035C51.8919 20.3035 51.2259 19.1875 51.2259 17.5135C51.2259 15.8395 51.8919 14.7055 53.1699 14.7055C54.4479 14.7055 55.1319 15.8395 55.1319 17.5135C55.1319 19.1875 54.4479 20.3035 53.1699 20.3035ZM53.1879 22.3915C56.1579 22.3915 58.1019 20.2855 58.1019 17.5135C58.1019 14.7415 56.1579 12.6355 53.1879 12.6355C50.2359 12.6355 48.2559 14.7415 48.2559 17.5135C48.2559 20.2855 50.2359 22.3915 53.1879 22.3915Z" fill="#340E0E"/>
<path d="M63.2428 25.2896C64.6108 25.2896 65.8168 24.9836 66.6268 24.2636C67.3648 23.5976 67.8508 22.5896 67.8508 21.2036V12.8876H65.0428V13.8776H65.0068C64.4668 13.1036 63.6388 12.6176 62.4148 12.6176C60.1288 12.6176 58.5448 14.5256 58.5448 17.2256C58.5448 20.0516 60.4708 21.5996 62.5408 21.5996C63.6568 21.5996 64.3588 21.1496 64.8988 20.5376H64.9708V21.4556C64.9708 22.5716 64.4488 23.2196 63.2068 23.2196C62.2348 23.2196 61.7488 22.8056 61.5868 22.3196H58.7428C59.0308 24.2456 60.7048 25.2896 63.2428 25.2896ZM63.2248 19.4216C62.1268 19.4216 61.4068 18.5216 61.4068 17.1356C61.4068 15.7316 62.1268 14.8316 63.2248 14.8316C64.4488 14.8316 65.0968 15.8756 65.0968 17.1176C65.0968 18.4136 64.5028 19.4216 63.2248 19.4216Z" fill="#340E0E"/>
<path d="M73.6245 20.3035C72.3465 20.3035 71.6805 19.1875 71.6805 17.5135C71.6805 15.8395 72.3465 14.7055 73.6245 14.7055C74.9025 14.7055 75.5865 15.8395 75.5865 17.5135C75.5865 19.1875 74.9025 20.3035 73.6245 20.3035ZM73.6425 22.3915C76.6125 22.3915 78.5565 20.2855 78.5565 17.5135C78.5565 14.7415 76.6125 12.6355 73.6425 12.6355C70.6905 12.6355 68.7105 14.7415 68.7105 17.5135C68.7105 20.2855 70.6905 22.3915 73.6425 22.3915Z" fill="#340E0E"/>
<path d="M79.413 22.1035H82.347V12.8875H79.413V22.1035ZM79.413 11.6095H82.347V9.23352H79.413V11.6095Z" fill="#340E0E"/>
<path d="M83.6205 25.1456H86.5545V21.1496H86.5905C87.1665 21.9236 88.0125 22.3916 89.2005 22.3916C91.6125 22.3916 93.2145 20.4836 93.2145 17.4956C93.2145 14.7236 91.7205 12.6176 89.2725 12.6176C88.0125 12.6176 87.1125 13.1756 86.4825 14.0036H86.4285V12.8876H83.6205V25.1456ZM88.4445 20.1236C87.1845 20.1236 86.4645 19.0976 86.4645 17.6036C86.4645 16.1096 87.1125 14.9756 88.3905 14.9756C89.6505 14.9756 90.2445 16.0196 90.2445 17.6036C90.2445 19.1696 89.5605 20.1236 88.4445 20.1236Z" fill="#340E0E"/>
<path d="M97.9912 22.3916C100.403 22.3916 102.185 21.3476 102.185 19.3316C102.185 16.9736 100.277 16.5596 98.6572 16.2896C97.4872 16.0736 96.4432 15.9836 96.4432 15.3356C96.4432 14.7596 97.0012 14.4896 97.7212 14.4896C98.5312 14.4896 99.0892 14.7416 99.1972 15.5696H101.897C101.753 13.7516 100.349 12.6176 97.7392 12.6176C95.5612 12.6176 93.7612 13.6256 93.7612 15.5696C93.7612 17.7296 95.4712 18.1616 97.0732 18.4316C98.2972 18.6476 99.4132 18.7376 99.4132 19.5656C99.4132 20.1596 98.8552 20.4836 97.9732 20.4836C97.0012 20.4836 96.3892 20.0336 96.2812 19.1156H93.5092C93.5992 21.1496 95.2912 22.3916 97.9912 22.3916Z" fill="#340E0E"/>
<path d="M106.171 22.3735C107.449 22.3735 108.259 21.8695 108.925 20.9695H108.979V22.1035H111.787V12.8875H108.853V18.0355C108.853 19.1335 108.241 19.8895 107.233 19.8895C106.297 19.8895 105.847 19.3315 105.847 18.3235V12.8875H102.931V18.9355C102.931 20.9875 104.047 22.3735 106.171 22.3735Z" fill="#340E0E"/>
<path d="M113.062 22.1036H115.997V16.9376C115.997 15.8396 116.537 15.0656 117.455 15.0656C118.337 15.0656 118.75 15.6416 118.75 16.6316V22.1036H121.685V16.9376C121.685 15.8396 122.207 15.0656 123.143 15.0656C124.025 15.0656 124.438 15.6416 124.438 16.6316V22.1036H127.373V16.1096C127.373 14.0396 126.329 12.6176 124.241 12.6176C123.053 12.6176 122.062 13.1216 121.342 14.2376H121.307C120.839 13.2476 119.92 12.6176 118.714 12.6176C117.382 12.6176 116.5 13.2476 115.924 14.2016H115.871V12.8876H113.062V22.1036Z" fill="#340E0E"/>
<path fill-rule="evenodd" clip-rule="evenodd" d="M15.5131 31.1035C23.7973 31.1035 30.5131 24.3878 30.5131 16.1035C30.5131 7.81925 23.7973 1.10352 15.5131 1.10352C7.22878 1.10352 0.513062 7.81925 0.513062 16.1035C0.513062 24.3878 7.22878 31.1035 15.5131 31.1035ZM20.1926 8.09115C20.4203 7.28205 19.6352 6.80361 18.9181 7.31449L8.9079 14.4457C8.13023 14.9997 8.25255 16.1035 9.09165 16.1035H11.7276V16.0831H16.865L12.679 17.5601L10.8336 24.1159C10.6058 24.925 11.3909 25.4034 12.1081 24.8925L22.1182 17.7614C22.8959 17.2073 22.7735 16.1035 21.9345 16.1035H17.9372L20.1926 8.09115Z" fill="#F5841F"/>
</g>
<defs>
<clipPath id="clip0_172_3578">
<rect width="127.5" height="30.75" fill="white" transform="translate(0 1)"/>
</clipPath>
</defs>
</svg>
