<svg width="19" height="14" viewBox="0 0 19 14" fill="none" xmlns="http://www.w3.org/2000/svg">
<path d="M7.56299 9.26486L11.8755 6.81236L7.56299 4.35986V9.26486Z" stroke="#F5841F" stroke-width="1.2" stroke-linecap="round" stroke-linejoin="round"/>
<path d="M17.1554 2.815C17.0663 2.45906 16.8849 2.13293 16.6294 1.86955C16.3739 1.60618 16.0535 1.41489 15.7004 1.315C14.4104 1 9.25043 1 9.25043 1C9.25043 1 4.09043 1 2.80043 1.345C2.44736 1.44489 2.12691 1.63618 1.87144 1.89955C1.61597 2.16293 1.43452 2.48906 1.34543 2.845C1.10934 4.15417 0.993856 5.48223 1.00043 6.8125C0.992013 8.15278 1.1075 9.49098 1.34543 10.81C1.44365 11.1549 1.62916 11.4686 1.88404 11.7209C2.13891 11.9731 2.45454 12.1554 2.80043 12.25C4.09043 12.595 9.25043 12.595 9.25043 12.595C9.25043 12.595 14.4104 12.595 15.7004 12.25C16.0535 12.1501 16.3739 11.9588 16.6294 11.6954C16.8849 11.4321 17.0663 11.1059 17.1554 10.75C17.3897 9.45069 17.5052 8.13275 17.5004 6.8125C17.5088 5.47222 17.3934 4.13402 17.1554 2.815V2.815Z" stroke="#F5841F" stroke-width="1.2" stroke-linecap="round" stroke-linejoin="round"/>
</svg>
