<svg width="19" height="19" viewBox="0 0 19 19" fill="none" xmlns="http://www.w3.org/2000/svg">
<path d="M13 6.5C14.3924 6.5 15.7277 7.05312 16.7123 8.03769C17.6969 9.02226 18.25 10.3576 18.25 11.75V17.875H14.75V11.75C14.75 11.2859 14.5656 10.8408 14.2374 10.5126C13.9092 10.1844 13.4641 10 13 10C12.5359 10 12.0908 10.1844 11.7626 10.5126C11.4344 10.8408 11.25 11.2859 11.25 11.75V17.875H7.75V11.75C7.75 10.3576 8.30312 9.02226 9.28769 8.03769C10.2723 7.05312 11.6076 6.5 13 6.5V6.5Z" stroke="#F5841F" stroke-width="1.2" stroke-linecap="round" stroke-linejoin="round"/>
<path d="M4.25 7.375H0.75V17.875H4.25V7.375Z" stroke="#F5841F" stroke-width="1.2" stroke-linecap="round" stroke-linejoin="round"/>
<path d="M2.5 4.75C3.4665 4.75 4.25 3.9665 4.25 3C4.25 2.0335 3.4665 1.25 2.5 1.25C1.5335 1.25 0.75 2.0335 0.75 3C0.75 3.9665 1.5335 4.75 2.5 4.75Z" stroke="#F5841F" stroke-width="1.2" stroke-linecap="round" stroke-linejoin="round"/>
</svg>
