<svg width="14" height="14" viewBox="0 0 14 14" fill="none" xmlns="http://www.w3.org/2000/svg">
<path fill-rule="evenodd" clip-rule="evenodd" d="M2.24983 0.390914C2.77042 -0.130099 3.61483 -0.130335 4.13571 0.390389L6.59753 2.85151C7.11821 3.37203 7.11844 4.21606 6.59806 4.73687L5.72548 5.61017L8.56168 8.44592L9.43369 7.57319C9.95427 7.05218 10.7987 7.05194 11.3196 7.57267L13.5167 9.76914C14.0373 10.2897 14.0376 11.1337 13.5172 11.6545L12.0638 13.1091C11.2116 13.962 9.8997 14.1524 8.84025 13.5768C5.24198 11.6221 2.28617 8.66663 0.330499 5.06892C-0.245087 4.01005 -0.0557458 2.6984 0.796224 1.84573L2.24983 0.390914ZM5.65486 3.79445L3.19303 1.33333L1.73942 2.78814C1.30499 3.22294 1.20832 3.89198 1.50194 4.43213C3.33469 7.80372 6.10473 10.5734 9.47673 12.4052C10.017 12.6987 10.686 12.6016 11.1206 12.1667L12.574 10.7121L10.3769 8.51561L8.56215 10.3319L3.84018 5.61064L5.65486 3.79445Z" fill="#F5841F"/>
</svg>
