<svg width="892" height="1" viewBox="0 0 892 1" fill="none" xmlns="http://www.w3.org/2000/svg">
<rect width="4" height="1" fill="#8ECAE6"/>
<rect x="8" width="4" height="1" fill="#8ECAE6"/>
<rect x="16" width="4" height="1" fill="#8ECAE6"/>
<rect x="24" width="4" height="1" fill="#8ECAE6"/>
<rect x="32" width="4" height="1" fill="#8ECAE6"/>
<rect x="40" width="4" height="1" fill="#8ECAE6"/>
<rect x="48" width="4" height="1" fill="#8ECAE6"/>
<rect x="56" width="4" height="1" fill="#8ECAE6"/>
<rect x="64" width="4" height="1" fill="#8ECAE6"/>
<rect x="72" width="4" height="1" fill="#8ECAE6"/>
<rect x="80" width="4" height="1" fill="#8ECAE6"/>
<rect x="88" width="4" height="1" fill="#8ECAE6"/>
<rect x="96" width="4" height="1" fill="#8ECAE6"/>
<rect x="104" width="4" height="1" fill="#8ECAE6"/>
<rect x="112" width="4" height="1" fill="#8ECAE6"/>
<rect x="120" width="4" height="1" fill="#8ECAE6"/>
<rect x="128" width="4" height="1" fill="#8ECAE6"/>
<rect x="136" width="4" height="1" fill="#8ECAE6"/>
<rect x="144" width="4" height="1" fill="#8ECAE6"/>
<rect x="152" width="4" height="1" fill="#8ECAE6"/>
<rect x="160" width="4" height="1" fill="#8ECAE6"/>
<rect x="168" width="4" height="1" fill="#8ECAE6"/>
<rect x="176" width="4" height="1" fill="#8ECAE6"/>
<rect x="184" width="4" height="1" fill="#8ECAE6"/>
<rect x="192" width="4" height="1" fill="#8ECAE6"/>
<rect x="200" width="4" height="1" fill="#8ECAE6"/>
<rect x="208" width="4" height="1" fill="#8ECAE6"/>
<rect x="216" width="4" height="1" fill="#8ECAE6"/>
<rect x="224" width="4" height="1" fill="#8ECAE6"/>
<rect x="232" width="4" height="1" fill="#8ECAE6"/>
<rect x="240" width="4" height="1" fill="#8ECAE6"/>
<rect x="248" width="4" height="1" fill="#8ECAE6"/>
<rect x="256" width="4" height="1" fill="#8ECAE6"/>
<rect x="264" width="4" height="1" fill="#8ECAE6"/>
<rect x="272" width="4" height="1" fill="#8ECAE6"/>
<rect x="280" width="4" height="1" fill="#8ECAE6"/>
<rect x="288" width="4" height="1" fill="#8ECAE6"/>
<rect x="296" width="4" height="1" fill="#8ECAE6"/>
<rect x="304" width="4" height="1" fill="#8ECAE6"/>
<rect x="312" width="4" height="1" fill="#8ECAE6"/>
<rect x="320" width="4" height="1" fill="#8ECAE6"/>
<rect x="328" width="4" height="1" fill="#8ECAE6"/>
<rect x="336" width="4" height="1" fill="#8ECAE6"/>
<rect x="344" width="4" height="1" fill="#8ECAE6"/>
<rect x="352" width="4" height="1" fill="#8ECAE6"/>
<rect x="360" width="4" height="1" fill="#8ECAE6"/>
<rect x="368" width="4" height="1" fill="#8ECAE6"/>
<rect x="376" width="4" height="1" fill="#8ECAE6"/>
<rect x="384" width="4" height="1" fill="#8ECAE6"/>
<rect x="392" width="4" height="1" fill="#8ECAE6"/>
<rect x="400" width="4" height="1" fill="#8ECAE6"/>
<rect x="408" width="4" height="1" fill="#8ECAE6"/>
<rect x="416" width="4" height="1" fill="#8ECAE6"/>
<rect x="424" width="4" height="1" fill="#8ECAE6"/>
<rect x="432" width="4" height="1" fill="#8ECAE6"/>
<rect x="440" width="4" height="1" fill="#8ECAE6"/>
<rect x="448" width="4" height="1" fill="#8ECAE6"/>
<rect x="456" width="4" height="1" fill="#8ECAE6"/>
<rect x="464" width="4" height="1" fill="#8ECAE6"/>
<rect x="472" width="4" height="1" fill="#8ECAE6"/>
<rect x="480" width="4" height="1" fill="#8ECAE6"/>
<rect x="488" width="4" height="1" fill="#8ECAE6"/>
<rect x="496" width="4" height="1" fill="#8ECAE6"/>
<rect x="504" width="4" height="1" fill="#8ECAE6"/>
<rect x="512" width="4" height="1" fill="#8ECAE6"/>
<rect x="520" width="4" height="1" fill="#8ECAE6"/>
<rect x="528" width="4" height="1" fill="#8ECAE6"/>
<rect x="536" width="4" height="1" fill="#8ECAE6"/>
<rect x="544" width="4" height="1" fill="#8ECAE6"/>
<rect x="552" width="4" height="1" fill="#8ECAE6"/>
<rect x="560" width="4" height="1" fill="#8ECAE6"/>
<rect x="568" width="4" height="1" fill="#8ECAE6"/>
<rect x="576" width="4" height="1" fill="#8ECAE6"/>
<rect x="584" width="4" height="1" fill="#8ECAE6"/>
<rect x="592" width="4" height="1" fill="#8ECAE6"/>
<rect x="600" width="4" height="1" fill="#8ECAE6"/>
<rect x="608" width="4" height="1" fill="#8ECAE6"/>
<rect x="616" width="4" height="1" fill="#8ECAE6"/>
<rect x="624" width="4" height="1" fill="#8ECAE6"/>
<rect x="632" width="4" height="1" fill="#8ECAE6"/>
<rect x="640" width="4" height="1" fill="#8ECAE6"/>
<rect x="648" width="4" height="1" fill="#8ECAE6"/>
<rect x="656" width="4" height="1" fill="#8ECAE6"/>
<rect x="664" width="4" height="1" fill="#8ECAE6"/>
<rect x="672" width="4" height="1" fill="#8ECAE6"/>
<rect x="680" width="4" height="1" fill="#8ECAE6"/>
<rect x="688" width="4" height="1" fill="#8ECAE6"/>
<rect x="696" width="4" height="1" fill="#8ECAE6"/>
<rect x="704" width="4" height="1" fill="#8ECAE6"/>
<rect x="712" width="4" height="1" fill="#8ECAE6"/>
<rect x="720" width="4" height="1" fill="#8ECAE6"/>
<rect x="728" width="4" height="1" fill="#8ECAE6"/>
<rect x="736" width="4" height="1" fill="#8ECAE6"/>
<rect x="744" width="4" height="1" fill="#8ECAE6"/>
<rect x="752" width="4" height="1" fill="#8ECAE6"/>
<rect x="760" width="4" height="1" fill="#8ECAE6"/>
<rect x="768" width="4" height="1" fill="#8ECAE6"/>
<rect x="776" width="4" height="1" fill="#8ECAE6"/>
<rect x="784" width="4" height="1" fill="#8ECAE6"/>
<rect x="792" width="4" height="1" fill="#8ECAE6"/>
<rect x="800" width="4" height="1" fill="#8ECAE6"/>
<rect x="808" width="4" height="1" fill="#8ECAE6"/>
<rect x="816" width="4" height="1" fill="#8ECAE6"/>
<rect x="824" width="4" height="1" fill="#8ECAE6"/>
<rect x="832" width="4" height="1" fill="#8ECAE6"/>
<rect x="840" width="4" height="1" fill="#8ECAE6"/>
<rect x="848" width="4" height="1" fill="#8ECAE6"/>
<rect x="856" width="4" height="1" fill="#8ECAE6"/>
<rect x="864" width="4" height="1" fill="#8ECAE6"/>
<rect x="872" width="4" height="1" fill="#8ECAE6"/>
<rect x="880" width="4" height="1" fill="#8ECAE6"/>
<rect x="888" width="4" height="1" fill="#8ECAE6"/>
</svg>
