<svg width="147" height="47" viewBox="0 0 147 47" fill="none" xmlns="http://www.w3.org/2000/svg">
<path fill-rule="evenodd" clip-rule="evenodd" d="M72.6756 7.90747C74.0634 6.51977 76.3134 6.51977 77.7012 7.90747C79.089 9.29527 79.089 11.5453 77.7012 12.9331L69.2403 21.394C66.8111 18.1384 67.075 13.5082 70.032 10.5512L72.6756 7.90747Z" fill="#4F9E91"/>
<path fill-rule="evenodd" clip-rule="evenodd" d="M84.771 26.9967C86.159 28.3844 86.159 30.6345 84.771 32.0222C83.384 33.41 81.1336 33.41 79.7458 32.0222L71.2849 23.5614C74.5405 21.1322 79.1707 21.396 82.1277 24.353L84.771 26.9967Z" fill="#EBE1C5"/>
<path fill-rule="evenodd" clip-rule="evenodd" d="M65.6821 39.0924C64.2944 40.4802 62.0443 40.4802 60.6566 39.0924C59.2688 37.7046 59.2688 35.4546 60.6566 34.0668L69.1174 25.606C71.5466 28.8616 71.2828 33.4918 68.3258 36.4487L65.6821 39.0924Z" fill="#EBCC6E"/>
<path fill-rule="evenodd" clip-rule="evenodd" d="M53.5865 20.0032C52.1987 18.6154 52.1987 16.3654 53.5865 14.9776C54.9743 13.5898 57.2243 13.5898 58.6121 14.9776L67.073 23.4385C63.8174 25.8677 59.1871 25.6038 56.2302 22.6469L53.5865 20.0032Z" fill="#ED834E"/>
<path fill-rule="evenodd" clip-rule="evenodd" d="M70.7849 38.0563C72.8312 35.7811 73.7823 32.8698 73.638 30.0034L77.7014 34.0668C77.7115 34.0769 77.7217 34.087 77.7319 34.0971V36.9981C77.7319 38.9607 76.1409 40.5517 74.1783 40.5517C72.5842 40.5517 71.2353 39.5021 70.7849 38.0563Z" fill="#ED834E"/>
<path fill-rule="evenodd" clip-rule="evenodd" d="M54.6226 25.1057C56.8977 27.1521 59.809 28.1032 62.6754 27.9589L58.6121 32.0223C58.6019 32.0324 58.5918 32.0426 58.5818 32.0527H55.6808C53.7182 32.0528 52.1272 30.4617 52.1272 28.4991C52.1272 26.9051 53.1768 25.5561 54.6226 25.1057Z" fill="#4F9E91"/>
<path fill-rule="evenodd" clip-rule="evenodd" d="M83.735 21.8941C81.4601 19.8477 78.5488 18.8966 75.6824 19.0408L79.7457 14.9775C79.7559 14.9674 79.7659 14.9572 79.776 14.947H82.6771C84.64 14.947 86.231 16.5381 86.231 18.5007C86.231 20.0948 85.181 21.4437 83.735 21.8941Z" fill="#EBCC6E"/>
<path fill-rule="evenodd" clip-rule="evenodd" d="M67.573 8.94374C65.5266 11.2189 64.5756 14.1302 64.7198 16.9967L60.6565 12.9333C60.6463 12.9232 60.6362 12.9131 60.626 12.903V10.0019C60.626 8.03934 62.217 6.44824 64.1796 6.44824C65.7737 6.44824 67.1226 7.49794 67.573 8.94374Z" fill="#EBE1C5"/>
<path fill-rule="evenodd" clip-rule="evenodd" d="M64.1798 3.55713C60.6204 3.55713 57.7349 6.44263 57.7349 10.002V11.2555C55.5935 10.696 53.2203 11.2552 51.5422 12.9333C49.0253 15.4502 49.0253 19.5309 51.5422 22.0478L52.4285 22.9341C50.5187 24.0527 49.2361 26.1262 49.2361 28.4993C49.2361 32.0587 52.1216 34.9442 55.681 34.9442H56.9344C56.3749 37.0856 56.9341 39.4588 58.6122 41.1368C61.1291 43.6537 65.2098 43.6537 67.7267 41.1368L70.3703 38.4932C72.7024 36.1611 73.7916 33.0567 73.6379 30.0033L77.7014 34.0667C80.2183 36.5836 84.2991 36.5836 86.8161 34.0667C89.3331 31.5498 89.3331 27.4691 86.8161 24.9523L85.9301 24.0661C87.8391 22.9475 89.1221 20.874 89.1221 18.5009C89.1221 14.9415 86.2361 12.056 82.6771 12.056H81.4236C81.9832 9.91453 81.4239 7.54133 79.7458 5.86323C77.229 3.34633 73.1483 3.34633 70.6314 5.86323L67.9877 8.50693C65.6556 10.839 64.5664 13.9433 64.7201 16.9967L60.6567 12.9333C60.6465 12.9232 60.6364 12.9131 60.6262 12.903V10.002C60.6262 8.03943 62.2172 6.44843 64.1798 6.44843C65.7739 6.44843 67.1228 7.49803 67.5732 8.94383C67.7067 8.79543 67.8448 8.64973 67.9876 8.50693L69.745 6.74953C68.6264 4.83973 66.5529 3.55713 64.1798 3.55713ZM79.7761 14.9473C79.766 14.9574 79.756 14.9676 79.7458 14.9777L75.6825 19.041C78.549 18.8968 81.4602 19.8478 83.7351 21.8943C85.1811 21.4439 86.2311 20.0949 86.2311 18.5009C86.2311 16.5383 84.6401 14.9473 82.6771 14.9473H79.7761ZM58.5818 32.0529C58.5919 32.0427 58.602 32.0325 58.6122 32.0224L62.6755 27.959C59.8091 28.1033 56.8979 27.1522 54.6228 25.1059C53.177 25.5563 52.1273 26.9052 52.1273 28.4993C52.1273 30.4619 53.7184 32.0529 55.681 32.0529H58.5818ZM54.512 25.0049C54.4017 24.903 54.293 24.7985 54.1859 24.6914V24.6915C54.293 24.7986 54.4017 24.903 54.512 25.0049ZM74.1783 43.4431C71.8051 43.4431 69.7316 42.1604 68.613 40.2506L70.3703 38.4932C70.5132 38.3504 70.6513 38.2047 70.7848 38.0563C71.2352 39.5021 72.5841 40.5518 74.1783 40.5518C76.1409 40.5518 77.7319 38.9608 77.7319 36.9982V34.0972C78.5647 34.9191 79.5657 35.4683 80.6232 35.7446V36.9982C80.6232 40.5576 77.7377 43.4431 74.1783 43.4431ZM77.7014 7.90763C76.3136 6.51993 74.0636 6.51993 72.6758 7.90763L70.0321 10.5513C67.0752 13.5083 66.8113 18.1385 69.2405 21.3941L77.7014 12.9332C79.0892 11.5454 79.0892 9.29543 77.7014 7.90763ZM84.7711 32.0223C86.1591 30.6345 86.1591 28.3845 84.7711 26.9967L82.1277 24.353C79.1708 21.3961 74.5405 21.1322 71.2849 23.5614L79.7458 32.0223C81.1336 33.4101 83.3841 33.4101 84.7711 32.0223ZM65.6822 39.0924C64.2944 40.4802 62.0444 40.4802 60.6566 39.0924C59.2689 37.7046 59.2689 35.4546 60.6566 34.0668L69.1175 25.6059C71.5467 28.8615 71.2828 33.4918 68.3259 36.4487L65.6822 39.0924ZM53.5866 14.9777C52.1989 16.3655 52.1989 18.6155 53.5866 20.0033L56.2303 22.647C59.1873 25.6039 63.8175 25.8678 67.0731 23.4386L58.6122 14.9777C57.2244 13.59 54.9744 13.59 53.5866 14.9777Z" fill="#3D3A2C"/>
<path d="M1.53271 16.5898H4.69331V26.411H10.1217V29.0716H1.53271V16.5898Z" fill="#3D3A2C"/>
<path d="M15.8603 29.3396C14.8008 29.3396 13.8722 29.1491 13.0746 28.7682C12.277 28.3753 11.658 27.8396 11.2175 27.1611C10.789 26.4706 10.5747 25.679 10.5747 24.7861C10.5747 23.8933 10.789 23.1076 11.2175 22.4291C11.658 21.7386 12.277 21.2029 13.0746 20.822C13.8722 20.4291 14.8008 20.2327 15.8603 20.2327C16.9198 20.2327 17.8483 20.4291 18.6459 20.822C19.4435 21.2029 20.0566 21.7386 20.4851 22.4291C20.9256 23.1076 21.1458 23.8933 21.1458 24.7861C21.1458 25.679 20.9256 26.4706 20.4851 27.1611C20.0566 27.8396 19.4435 28.3753 18.6459 28.7682C17.8483 29.1491 16.9198 29.3396 15.8603 29.3396ZM15.8603 26.8932C16.4912 26.8932 16.9912 26.7087 17.3602 26.3397C17.7412 25.9587 17.9316 25.4409 17.9316 24.7861C17.9316 24.1314 17.7412 23.6195 17.3602 23.2505C16.9912 22.8695 16.4912 22.6791 15.8603 22.6791C15.2293 22.6791 14.7234 22.8695 14.3425 23.2505C13.9734 23.6195 13.7889 24.1314 13.7889 24.7861C13.7889 25.4409 13.9734 25.9587 14.3425 26.3397C14.7234 26.7087 15.2293 26.8932 15.8603 26.8932Z" fill="#3D3A2C"/>
<path d="M27.0492 33.1788C26.4778 33.1788 25.9004 33.1252 25.3171 33.0181C24.7457 32.9109 24.2516 32.7681 23.835 32.5895V30.411C24.7754 30.8157 25.8468 31.0181 27.0492 31.0181C27.9182 31.0181 28.5432 30.8395 28.9241 30.4824C29.317 30.1253 29.5134 29.6015 29.5134 28.911V28.3932C29.1682 28.6908 28.7396 28.9229 28.2277 29.0896C27.7277 29.2563 27.192 29.3396 26.6206 29.3396C25.7159 29.3396 24.9183 29.1491 24.2278 28.7682C23.5374 28.3872 22.9957 27.8515 22.6029 27.1611C22.2219 26.4706 22.0315 25.679 22.0315 24.7861C22.0315 23.8814 22.2219 23.0838 22.6029 22.3934C22.9838 21.7029 23.5195 21.1731 24.21 20.8041C24.9004 20.4232 25.6921 20.2327 26.5849 20.2327C27.8111 20.2327 28.8229 20.6077 29.6205 21.3577V20.5005H32.6562V28.4825C32.6562 29.9705 32.1978 31.1253 31.2812 31.9467C30.3765 32.7681 28.9658 33.1788 27.0492 33.1788ZM27.4063 26.9111C27.8944 26.9111 28.3289 26.7861 28.7098 26.5361C29.0908 26.2861 29.3586 25.9528 29.5134 25.5361V24.0362C29.3467 23.6195 29.0729 23.2921 28.692 23.054C28.311 22.8041 27.8825 22.6791 27.4063 22.6791C26.7635 22.6791 26.2456 22.8695 25.8528 23.2505C25.4599 23.6195 25.2635 24.1254 25.2635 24.7683C25.2635 25.423 25.4599 25.9468 25.8528 26.3397C26.2456 26.7206 26.7635 26.9111 27.4063 26.9111Z" fill="#3D3A2C"/>
<path d="M38.739 29.3396C37.6795 29.3396 36.751 29.1491 35.9534 28.7682C35.1558 28.3753 34.5367 27.8396 34.0963 27.1611C33.6677 26.4706 33.4534 25.679 33.4534 24.7861C33.4534 23.8933 33.6677 23.1076 34.0963 22.4291C34.5367 21.7386 35.1558 21.2029 35.9534 20.822C36.751 20.4291 37.6795 20.2327 38.739 20.2327C39.7985 20.2327 40.727 20.4291 41.5246 20.822C42.3222 21.2029 42.9353 21.7386 43.3639 22.4291C43.8043 23.1076 44.0246 23.8933 44.0246 24.7861C44.0246 25.679 43.8043 26.4706 43.3639 27.1611C42.9353 27.8396 42.3222 28.3753 41.5246 28.7682C40.727 29.1491 39.7985 29.3396 38.739 29.3396ZM38.739 26.8932C39.3699 26.8932 39.8699 26.7087 40.239 26.3397C40.6199 25.9587 40.8104 25.4409 40.8104 24.7861C40.8104 24.1314 40.6199 23.6195 40.239 23.2505C39.8699 22.8695 39.3699 22.6791 38.739 22.6791C38.1081 22.6791 37.6021 22.8695 37.2212 23.2505C36.8521 23.6195 36.6676 24.1314 36.6676 24.7861C36.6676 25.4409 36.8521 25.9587 37.2212 26.3397C37.6021 26.7087 38.1081 26.8932 38.739 26.8932Z" fill="#3D3A2C"/>
<path d="M94.4319 16.5898H97.5929V29.0716H94.4319V16.5898Z" fill="#3D3A2C"/>
<path d="M99.1931 20.5005H102.229V21.3577C103.026 20.6077 104.038 20.2327 105.264 20.2327C106.157 20.2327 106.949 20.4232 107.639 20.8041C108.33 21.1731 108.865 21.7029 109.246 22.3934C109.627 23.0719 109.818 23.8636 109.818 24.7683C109.818 25.6611 109.627 26.4587 109.246 27.1611C108.865 27.8515 108.33 28.3872 107.639 28.7682C106.961 29.1491 106.169 29.3396 105.264 29.3396C104.693 29.3396 104.145 29.2503 103.622 29.0717C103.11 28.9051 102.681 28.6729 102.336 28.3753V32.9823H99.1931V20.5005ZM104.443 26.8932C105.086 26.8932 105.604 26.7028 105.996 26.3218C106.389 25.9409 106.586 25.423 106.586 24.7683C106.586 24.1135 106.389 23.6017 105.996 23.2326C105.604 22.8517 105.086 22.6612 104.443 22.6612C103.967 22.6612 103.538 22.7862 103.157 23.0362C102.776 23.2743 102.503 23.6017 102.336 24.0183V25.5361C102.503 25.9528 102.776 26.2861 103.157 26.5361C103.538 26.7742 103.967 26.8932 104.443 26.8932Z" fill="#3D3A2C"/>
<path d="M114.503 29.3396C113.813 29.3396 113.093 29.2682 112.343 29.1253C111.593 28.9944 110.997 28.8039 110.557 28.5539V26.2504C111.045 26.5361 111.628 26.7742 112.307 26.9647C112.997 27.1432 113.628 27.2325 114.2 27.2325C114.616 27.2325 114.92 27.2027 115.11 27.1432C115.301 27.0837 115.396 26.9647 115.396 26.7861C115.396 26.6432 115.331 26.5301 115.2 26.4468C115.081 26.3516 114.854 26.2563 114.521 26.1611C114.2 26.054 113.825 25.9409 113.396 25.8218C112.67 25.6075 112.099 25.3873 111.682 25.1611C111.265 24.9349 110.956 24.6492 110.753 24.304C110.551 23.9588 110.45 23.5243 110.45 23.0005C110.45 22.0719 110.813 21.3815 111.539 20.9291C112.277 20.4648 113.283 20.2327 114.557 20.2327C115.176 20.2327 115.825 20.2982 116.503 20.4291C117.194 20.5601 117.711 20.7327 118.057 20.947V23.2148C117.7 22.9767 117.223 22.7802 116.628 22.6255C116.045 22.4707 115.497 22.3934 114.985 22.3934C114.581 22.3934 114.265 22.435 114.039 22.5183C113.813 22.5898 113.7 22.7207 113.7 22.9112C113.7 23.0898 113.813 23.2267 114.039 23.3219C114.265 23.4171 114.67 23.5362 115.253 23.679C115.634 23.7743 115.795 23.8159 115.735 23.804C116.497 24.0064 117.086 24.2326 117.503 24.4826C117.92 24.7326 118.211 25.0302 118.378 25.3754C118.557 25.7087 118.646 26.1373 118.646 26.6611C118.646 27.4825 118.289 28.1372 117.575 28.6253C116.872 29.1015 115.848 29.3396 114.503 29.3396Z" fill="#3D3A2C"/>
<path d="M123.338 29.3396C122.16 29.3396 121.273 29.0122 120.678 28.3575C120.095 27.7027 119.803 26.8397 119.803 25.7683V20.5005H122.946V25.4111C122.946 26.3992 123.392 26.8932 124.285 26.8932C124.69 26.8932 125.059 26.798 125.392 26.6075C125.725 26.417 125.999 26.1373 126.213 25.7683V20.5005H129.356V29.0717H126.321V28.1432C125.952 28.536 125.505 28.8336 124.981 29.036C124.458 29.2384 123.91 29.3396 123.338 29.3396Z" fill="#3D3A2C"/>
<path d="M130.965 20.5005H133.876V21.4291C134.233 21.0482 134.644 20.7565 135.108 20.5541C135.572 20.3398 136.066 20.2327 136.59 20.2327C137.233 20.2327 137.745 20.3279 138.126 20.5184C138.519 20.7089 138.834 20.9946 139.072 21.3755C139.429 21.0184 139.864 20.7386 140.376 20.5363C140.888 20.3339 141.406 20.2327 141.929 20.2327C143.06 20.2327 143.864 20.5244 144.34 21.1077C144.816 21.6791 145.054 22.5064 145.054 23.5897V29.0717H142.054V24.0362C142.054 23.56 141.965 23.2148 141.786 23.0005C141.608 22.7862 141.31 22.6791 140.894 22.6791C140.358 22.6791 139.923 22.8695 139.59 23.2505C139.602 23.4528 139.608 23.7624 139.608 24.179V29.0717H136.608V23.9112C136.608 23.4707 136.531 23.1552 136.376 22.9648C136.221 22.7743 135.947 22.6791 135.555 22.6791C134.947 22.6791 134.424 23.0183 133.983 23.6969V29.0717H130.965V20.5005Z" fill="#3D3A2C"/>
</svg>
