<svg width="132" height="41" viewBox="0 0 132 41" fill="none" xmlns="http://www.w3.org/2000/svg">
<path d="M23.23 11.89H25.23V25.81H31.23V27.81H23.23V11.89ZM37.46 11.89C38.6467 11.89 39.8067 12.2419 40.7934 12.9012C41.7801 13.5605 42.5492 14.4975 43.0033 15.5939C43.4574 16.6903 43.5762 17.8967 43.3447 19.0605C43.1132 20.2244 42.5418 21.2935 41.7026 22.1326C40.8635 22.9718 39.7944 23.5432 38.6305 23.7747C37.4667 24.0062 36.2603 23.8874 35.1639 23.4333C34.0675 22.9791 33.1305 22.2101 32.4712 21.2234C31.8119 20.2367 31.46 19.0767 31.46 17.89C31.46 17.1021 31.6152 16.3218 31.9167 15.5939C32.2182 14.8659 32.6602 14.2045 33.2174 13.6474C33.7745 13.0902 34.4359 12.6482 35.1639 12.3467C35.8918 12.0452 36.6721 11.89 37.46 11.89ZM37.46 21.89C38.2511 21.89 39.0245 21.6554 39.6823 21.2159C40.3401 20.7763 40.8528 20.1516 41.1555 19.4207C41.4583 18.6898 41.5375 17.8856 41.3831 17.1096C41.2288 16.3337 40.8478 15.621 40.2884 15.0616C39.729 14.5022 39.0163 14.1212 38.2404 13.9669C37.4644 13.8125 36.6602 13.8917 35.9293 14.1945C35.1984 14.4972 34.5736 15.0099 34.1341 15.6677C33.6946 16.3255 33.46 17.0989 33.46 17.89C33.4653 18.9474 33.889 19.9597 34.6386 20.7055C35.3882 21.4513 36.4026 21.87 37.46 21.87V21.89ZM33.46 25.83H41.46V27.83H33.46V25.83ZM59.06 27.83H57.06V26.4C55.7702 27.3028 54.2344 27.788 52.66 27.79C51.3175 27.799 49.9943 27.47 48.8124 26.8333C47.6304 26.1965 46.6277 25.2726 45.8967 24.1466C45.1656 23.0206 44.7296 21.7287 44.629 20.3899C44.5283 19.0512 44.7662 17.7086 45.3207 16.486C45.8752 15.2633 46.7285 14.1998 47.8019 13.3936C48.8754 12.5873 50.1345 12.0641 51.4632 11.8723C52.792 11.6804 54.1477 11.8261 55.4053 12.2958C56.663 12.7655 57.7823 13.5441 58.66 14.56L57.19 15.87C56.5224 15.1236 55.6787 14.5562 54.7356 14.2195C53.7926 13.8827 52.7803 13.7873 51.791 13.942C50.8016 14.0967 49.8668 14.4966 49.0715 15.1051C48.2763 15.7137 47.646 16.5115 47.2382 17.4261C46.8303 18.3406 46.6578 19.3426 46.7364 20.3409C46.815 21.3392 47.1421 22.3019 47.6881 23.1413C48.2341 23.9807 48.9814 24.6702 49.8621 25.1468C50.7427 25.6234 51.7287 25.872 52.73 25.87C53.561 25.8717 54.3826 25.6939 55.1386 25.3487C55.8945 25.0035 56.567 24.4991 57.11 23.87H51.71V21.87H59.08L59.06 27.83ZM66.42 11.93C67.6067 11.93 68.7667 12.2819 69.7534 12.9412C70.7401 13.6005 71.5092 14.5375 71.9633 15.6339C72.4174 16.7303 72.5362 17.9367 72.3047 19.1005C72.0732 20.2644 71.5018 21.3335 70.6626 22.1726C69.8235 23.0118 68.7544 23.5832 67.5905 23.8147C66.4267 24.0462 65.2203 23.9274 64.1239 23.4733C63.0275 23.0191 62.0905 22.2501 61.4312 21.2634C60.7719 20.2767 60.42 19.1167 60.42 17.93C60.4147 17.137 60.5667 16.3509 60.8671 15.617C61.1675 14.8831 61.6104 14.216 62.1702 13.6544C62.73 13.0927 63.3956 12.6476 64.1285 12.3447C64.8614 12.0419 65.647 11.8873 66.44 11.89L66.42 11.93ZM66.42 21.93C67.2111 21.93 67.9845 21.6954 68.6423 21.2559C69.3001 20.8163 69.8128 20.1916 70.1155 19.4607C70.4183 18.7298 70.4975 17.9256 70.3431 17.1496C70.1888 16.3737 69.8078 15.661 69.2484 15.1016C68.689 14.5422 67.9763 14.1612 67.2004 14.0069C66.4244 13.8525 65.6202 13.9317 64.8893 14.2345C64.1584 14.5372 63.5336 15.0499 63.0941 15.7077C62.6546 16.3655 62.42 17.1389 62.42 17.93C62.4358 18.9839 62.8669 19.989 63.6197 20.7268C64.3724 21.4645 65.386 21.8754 66.44 21.87L66.42 21.93ZM62.42 25.87H70.42V27.87H62.42V25.87ZM74.55 11.89H76.55V27.79H74.55V11.89ZM79.32 11.89H81.32C81.423 11.8791 81.5269 11.8791 81.63 11.89C82.4676 11.7991 83.315 11.8857 84.1169 12.144C84.9188 12.4024 85.6574 12.8267 86.2844 13.3894C86.9115 13.9521 87.413 14.6406 87.7563 15.41C88.0997 16.1794 88.2771 17.0125 88.2771 17.855C88.2771 18.6975 88.0997 19.5306 87.7563 20.3C87.413 21.0694 86.9115 21.7579 86.2844 22.3206C85.6574 22.8833 84.9188 23.3076 84.1169 23.566C83.315 23.8243 82.4676 23.9109 81.63 23.82H81.32V27.82H79.32V11.89ZM81.32 13.89V21.8H81.63C82.1949 21.8752 82.7693 21.8289 83.3149 21.664C83.8604 21.4992 84.3644 21.2197 84.7931 20.8443C85.2219 20.4689 85.5654 20.0062 85.8008 19.4872C86.0362 18.9682 86.158 18.4049 86.158 17.835C86.158 17.2651 86.0362 16.7018 85.8008 16.1828C85.5654 15.6638 85.2219 15.2011 84.7931 14.8257C84.3644 14.4502 83.8604 14.1708 83.3149 14.0059C82.7693 13.8411 82.1949 13.7948 81.63 13.87C81.5211 13.8813 81.4137 13.9048 81.31 13.94L81.32 13.89ZM95.73 13.04L94.25 14.21C93.9947 13.9432 93.6685 13.7548 93.3098 13.667C92.9511 13.5792 92.5748 13.5956 92.2251 13.7143C91.8753 13.8329 91.5668 14.0489 91.3356 14.3369C91.1044 14.6249 90.9602 14.9729 90.92 15.34V15.5C90.92 16.38 91.53 16.97 92.72 17.05C97.3 17.33 99.4 19.48 99.4 22.32V22.5C99.2817 23.624 98.8431 24.6904 98.1363 25.5724C97.4295 26.4544 96.4842 27.1147 95.413 27.475C94.3417 27.8352 93.1895 27.8802 92.0934 27.6045C90.9973 27.3289 90.0034 26.7442 89.23 25.92L90.76 24.74C91.1161 25.1217 91.551 25.4213 92.0345 25.6182C92.518 25.815 93.0385 25.9044 93.56 25.88C94.5232 25.9308 95.4687 25.6075 96.1991 24.9776C96.9296 24.3478 97.3885 23.4601 97.48 22.5V22.36C97.48 19.69 94.86 19.2 92.59 18.98C90.49 18.78 88.98 17.47 88.98 15.58V15.5C89.054 14.516 89.5031 13.598 90.2344 12.9356C90.9657 12.2731 91.9235 11.9167 92.91 11.94C93.4328 11.9246 93.9529 12.0189 94.437 12.217C94.921 12.4151 95.3581 12.7125 95.72 13.09L95.73 13.04ZM107.23 25.76C109.72 25.76 111.69 23.07 111.69 19.76V11.76H113.69V19.76C113.69 24.16 110.81 27.71 107.27 27.71C103.73 27.71 100.85 24.16 100.85 19.76V11.76H102.85V19.76C102.77 23.12 104.74 25.81 107.22 25.81L107.23 25.76ZM129.04 27.76H127.04V17.86L122.43 23.86L117.82 17.86V27.79H115.82V11.89L122.42 20.58L129.02 11.89L129.04 27.76Z" fill="#394149"/>
<path d="M13.63 9.50006C13.63 8.05728 13.0569 6.67359 12.0367 5.6534C11.0165 4.6332 9.63278 4.06006 8.19 4.06006C6.74722 4.06006 5.36354 4.6332 4.34334 5.6534C3.32314 6.67359 2.75 8.05728 2.75 9.50006V25.9501L7.23 29.1601V36.9801H9.15V29.1601L13.63 25.9501V9.50006ZM11.71 18.7001L9.15 21.2601V18.8601L11.71 16.3001V18.7001ZM4.71 16.3001L7.27 18.8601V21.2601L4.71 18.7001V16.3001ZM11.71 13.5801L8.19 17.1001L4.67 13.5001V11.1001L8.19 14.6201L11.71 11.1001V13.5801ZM8.19 5.98006C8.96415 5.98348 9.71583 6.24059 10.3299 6.71199C10.944 7.18339 11.3866 7.84309 11.59 8.59006L8.19 11.9801L4.79 8.59006C4.98594 7.83566 5.42537 7.16701 6.04013 6.68787C6.65489 6.20872 7.41059 5.94585 8.19 5.94005V5.98006ZM4.67 24.9801V21.3801L7.23 23.9401V26.8001L4.67 24.9801ZM9.15 26.8101V23.9401L11.71 21.3801V24.9701L9.15 26.8101Z" fill="#394149"/>
</svg>
