<svg width="125" height="41" viewBox="0 0 125 41" fill="none" xmlns="http://www.w3.org/2000/svg">
<g clip-path="url(#clip0_338_1267)">
<path d="M88.861 37.725C89.62 37.725 90.069 37.15 90.069 36.251C90.069 35.319 89.587 34.777 88.877 34.777C88.471 34.777 88.189 34.957 87.978 35.243H87.968V33.77H87.528V37.643H87.968V37.275H87.978C88.206 37.589 88.482 37.725 88.861 37.725ZM88.829 37.356C88.233 37.356 87.94 36.885 87.94 36.256C87.94 35.65 88.222 35.151 88.834 35.151C89.365 35.151 89.62 35.628 89.62 36.256C89.62 36.89 89.365 37.356 88.829 37.356V37.356ZM90.812 38.57C91.153 38.57 91.37 38.45 91.597 37.87L92.795 34.842H92.329L91.689 36.587C91.603 36.82 91.505 37.134 91.505 37.134H91.495C91.495 37.134 91.391 36.82 91.305 36.587L90.644 34.842H90.167L91.261 37.562L91.153 37.838C91.045 38.109 90.92 38.18 90.736 38.18C90.6332 38.1852 90.5307 38.1646 90.438 38.12H90.416V38.51C90.536 38.559 90.644 38.57 90.812 38.57V38.57ZM93.918 37.643H94.655V33.77H93.918V37.643ZM96.457 37.725C97.318 37.725 97.909 37.085 97.909 36.256C97.909 35.427 97.319 34.788 96.457 34.788C95.596 34.788 95.005 35.428 95.005 36.256C95.005 37.086 95.595 37.725 96.457 37.725ZM96.457 37.161C96.002 37.161 95.753 36.798 95.753 36.256C95.753 35.715 96.002 35.346 96.457 35.346C96.907 35.346 97.161 35.715 97.161 36.256C97.161 36.798 96.907 37.161 96.457 37.161ZM99.476 38.591C99.888 38.591 100.245 38.494 100.478 38.277C100.684 38.087 100.809 37.822 100.809 37.432V34.864H100.099V35.157H100.088C99.92 34.924 99.666 34.788 99.318 34.788C98.615 34.788 98.116 35.319 98.116 36.148C98.116 36.988 98.723 37.475 99.341 37.475C99.693 37.475 99.904 37.335 100.066 37.15H100.083V37.454C100.083 37.833 99.883 38.034 99.465 38.034C99.124 38.034 98.967 37.898 98.907 37.724H98.176C98.251 38.266 98.717 38.591 99.476 38.591V38.591ZM99.466 36.885C99.086 36.885 98.836 36.609 98.836 36.137C98.836 35.671 99.086 35.379 99.46 35.379C99.904 35.379 100.121 35.725 100.121 36.132C100.121 36.544 99.931 36.885 99.465 36.885H99.466ZM102.6 37.725C103.461 37.725 104.052 37.085 104.052 36.256C104.052 35.427 103.461 34.788 102.6 34.788C101.738 34.788 101.148 35.428 101.148 36.256C101.148 37.086 101.738 37.725 102.6 37.725ZM102.6 37.161C102.145 37.161 101.895 36.798 101.895 36.256C101.895 35.715 102.145 35.346 102.6 35.346C103.049 35.346 103.304 35.715 103.304 36.256C103.304 36.798 103.049 37.161 102.6 37.161ZM104.394 37.643H105.131V34.864H104.394V37.644V37.643ZM104.394 34.431H105.131V33.77H104.394V34.43V34.431ZM105.606 38.553H106.343V37.33H106.353C106.511 37.569 106.765 37.726 107.155 37.726C107.87 37.726 108.358 37.156 108.358 36.257C108.358 35.39 107.887 34.789 107.15 34.789C106.989 34.7864 106.83 34.8237 106.688 34.8975C106.545 34.9713 106.423 35.0794 106.332 35.212H106.316V34.865H105.606V38.555V38.553ZM106.998 37.113C106.559 37.113 106.326 36.782 106.326 36.278C106.326 35.78 106.511 35.384 106.971 35.384C107.426 35.384 107.61 35.752 107.61 36.278C107.61 36.804 107.372 37.112 106.998 37.112V37.113ZM109.828 37.725C110.521 37.725 110.998 37.389 110.998 36.831C110.998 36.181 110.483 36.051 110.017 35.953C109.622 35.872 109.254 35.85 109.254 35.612C109.254 35.412 109.443 35.302 109.73 35.302C110.045 35.302 110.234 35.412 110.267 35.709H110.933C110.879 35.151 110.473 34.789 109.741 34.789C109.107 34.789 108.609 35.075 108.609 35.677C108.609 36.283 109.096 36.419 109.595 36.517C109.974 36.592 110.326 36.619 110.326 36.885C110.326 37.08 110.142 37.205 109.817 37.205C109.487 37.205 109.259 37.064 109.21 36.744H108.528C108.571 37.334 109.021 37.724 109.828 37.724V37.725ZM113.796 37.643V34.864H113.059V36.468C113.059 36.836 112.847 37.096 112.501 37.096C112.187 37.096 112.04 36.917 112.04 36.592V34.864H111.309V36.717C111.309 37.324 111.656 37.719 112.273 37.719C112.663 37.719 112.88 37.573 113.07 37.319H113.086V37.643H113.796V37.643ZM114.272 37.643H115.009V36.03C115.009 35.661 115.209 35.423 115.507 35.423C115.778 35.423 115.935 35.586 115.935 35.9V37.644H116.672V36.03C116.672 35.661 116.862 35.423 117.171 35.423C117.442 35.423 117.599 35.586 117.599 35.9V37.644H118.336V35.775C118.336 35.168 118.005 34.789 117.42 34.789C117.068 34.789 116.775 34.973 116.586 35.277H116.575C116.508 35.1294 116.4 35.0046 116.263 34.9178C116.126 34.8311 115.967 34.7863 115.805 34.789C115.642 34.7849 115.482 34.8245 115.34 34.9037C115.198 34.9828 115.08 35.0987 114.998 35.239H114.982V34.865H114.272V37.645V37.643Z" fill="#E5708C"/>
<path d="M118.481 2.64894C118.481 1.46594 119.44 0.505938 120.623 0.505938H122.052C122.62 0.505938 123.165 0.731718 123.567 1.13361C123.969 1.5355 124.195 2.08058 124.195 2.64894C124.195 3.2173 123.969 3.76238 123.567 4.16427C123.165 4.56616 122.62 4.79194 122.052 4.79194H120.623C120.342 4.79194 120.063 4.7365 119.803 4.62879C119.543 4.52108 119.307 4.36322 119.108 4.16421C118.909 3.9652 118.751 3.72895 118.644 3.46895C118.536 3.20896 118.481 2.93031 118.481 2.64894V2.64894ZM58.49 14.7899C58.49 22.6779 52.096 29.0729 44.207 29.0729C36.319 29.0729 29.924 22.6779 29.924 14.7899C29.924 6.89994 36.319 0.506938 44.207 0.506938C52.096 0.506938 58.49 6.89994 58.49 14.7899ZM27.138 14.7189C27.928 14.7189 28.574 15.3589 28.495 16.1449C28.2251 18.8348 27.1973 21.3927 25.5311 23.5216C23.865 25.6504 21.6289 27.2627 19.0827 28.1711C16.5366 29.0794 13.7849 29.2466 11.1475 28.653C8.51015 28.0595 6.09537 26.7297 4.18382 24.8181C2.27228 22.9066 0.942462 20.4918 0.348932 17.8544C-0.244598 15.2171 -0.0774716 12.4654 0.830888 9.91924C1.73925 7.37308 3.35154 5.13699 5.48038 3.47085C7.60923 1.8047 10.1672 0.776913 12.857 0.506938C13.642 0.426938 14.283 1.07494 14.283 1.86294V13.2899C14.283 14.0799 14.923 14.7189 15.712 14.7189H27.138V14.7189ZM78.487 31.9299C79.6235 31.9299 80.7134 32.3814 81.517 33.185C82.3206 33.9886 82.772 35.0785 82.772 36.2149C82.772 37.3514 82.3206 38.4413 81.517 39.2449C80.7134 40.0485 79.6235 40.4999 78.487 40.4999H71.346C70.2096 40.4999 69.1197 40.0485 68.3161 39.2449C67.5125 38.4413 67.061 37.3514 67.061 36.2149C67.061 35.0785 67.5125 33.9886 68.3161 33.185C69.1197 32.3814 70.2096 31.9299 71.346 31.9299H78.487ZM74.202 29.0729C82.091 29.0729 88.486 22.6779 88.486 14.7899C88.4894 12.3669 87.8736 9.98315 86.697 7.86494L89.057 5.50494C89.3289 5.23297 89.5445 4.91012 89.6915 4.55483C89.8386 4.19954 89.9142 3.81876 89.9142 3.43423C89.9141 3.0497 89.8382 2.66896 89.691 2.31374C89.5438 1.95852 89.328 1.63577 89.056 1.36394C88.7841 1.0921 88.4612 0.876496 88.1059 0.729429C87.7506 0.582363 87.3698 0.506716 86.9853 0.506809C86.6008 0.506902 86.22 0.582732 85.8648 0.72997C85.5096 0.877208 85.1869 1.09297 84.915 1.36494L82.855 3.42494C80.3698 1.52684 77.3282 0.500907 74.201 0.505938C66.314 0.506938 59.92 6.89994 59.92 14.7899C59.92 22.6779 66.315 29.0729 74.203 29.0729H74.202ZM118.481 14.7899C118.481 22.6779 112.086 29.0729 104.197 29.0729C96.309 29.0729 89.914 22.6779 89.914 14.7899C89.914 6.89994 96.309 0.506938 104.197 0.506938C112.086 0.506938 118.481 6.90094 118.481 14.7899Z" fill="url(#paint0_linear_338_1267)"/>
</g>
<defs>
<linearGradient id="paint0_linear_338_1267" x1="2.56131e-05" y1="16.4999" x2="119" y2="16.4999" gradientUnits="userSpaceOnUse">
<stop stop-color="#64C2DB"/>
<stop offset="0.307" stop-color="#7476ED"/>
<stop offset="0.604" stop-color="#C994DF"/>
<stop offset="1" stop-color="#E56F8C"/>
</linearGradient>
<clipPath id="clip0_338_1267">
<rect width="125" height="40" fill="white" transform="translate(0 0.5)"/>
</clipPath>
</defs>
</svg>
