<svg width="70" height="45" viewBox="0 0 70 45" fill="none" xmlns="http://www.w3.org/2000/svg">
<path d="M69.265 22.5C69.265 34.9264 59.29 45 46.9855 45C34.681 45 24.7061 34.9264 24.7061 22.5C24.7061 10.0736 34.681 0 46.9855 0C59.29 0 69.265 10.0736 69.265 22.5Z" fill="#FF7917"/>
<path d="M45 22.5C45 34.9264 34.9264 45 22.5 45C10.0737 45 0 34.9264 0 22.5C0 10.0736 10.0737 0 22.5 0C34.9264 0 45 10.0736 45 22.5Z" fill="#68DBFF"/>
<path d="M34.8031 41.3416C40.9435 37.3239 45.0002 30.3858 45.0002 22.5C45.0002 14.6144 40.9435 7.67617 34.8031 3.65857C28.723 7.67617 24.7061 14.6144 24.7061 22.5C24.7061 30.3858 28.723 37.3239 34.8031 41.3416Z" fill="#5D2C02"/>
</svg>
