<svg width="144" height="40" viewBox="0 0 144 40" fill="none" xmlns="http://www.w3.org/2000/svg">
<path d="M129.432 16.9433H132.343V17.8719C132.7 17.491 133.111 17.1993 133.575 16.9969C134.039 16.7826 134.533 16.6755 135.057 16.6755C135.7 16.6755 136.212 16.7707 136.593 16.9612C136.986 17.1517 137.301 17.4374 137.539 17.8183C137.896 17.4612 138.331 17.1814 138.843 16.9791C139.355 16.7767 139.873 16.6755 140.396 16.6755C141.527 16.6755 142.331 16.9672 142.807 17.5505C143.283 18.1219 143.521 18.9492 143.521 20.0325V25.5145H140.521V20.479C140.521 20.0028 140.432 19.6576 140.253 19.4433C140.075 19.229 139.777 19.1219 139.361 19.1219C138.825 19.1219 138.39 19.3123 138.057 19.6933C138.069 19.8956 138.075 20.2052 138.075 20.6218V25.5145H135.075V20.354C135.075 19.9135 134.998 19.598 134.843 19.4076C134.688 19.2171 134.414 19.1219 134.022 19.1219C133.414 19.1219 132.891 19.4611 132.45 20.1397V25.5145H129.432V16.9433Z" fill="#3D3A2C"/>
<path d="M121.806 25.7825C120.628 25.7825 119.741 25.4551 119.146 24.8004C118.563 24.1456 118.271 23.2826 118.271 22.2112V16.9434H121.414V21.854C121.414 22.8421 121.86 23.3361 122.753 23.3361C123.158 23.3361 123.527 23.2409 123.86 23.0504C124.193 22.8599 124.467 22.5802 124.681 22.2112V16.9434H127.824V25.5146H124.789V24.5861C124.42 24.9789 123.973 25.2765 123.449 25.4789C122.926 25.6813 122.378 25.7825 121.806 25.7825Z" fill="#3D3A2C"/>
<path d="M112.97 25.7824C112.28 25.7824 111.56 25.711 110.81 25.5681C110.06 25.4372 109.464 25.2467 109.024 24.9967V22.6932C109.512 22.9789 110.095 23.217 110.774 23.4075C111.464 23.586 112.095 23.6753 112.667 23.6753C113.083 23.6753 113.387 23.6455 113.577 23.586C113.768 23.5265 113.863 23.4075 113.863 23.2289C113.863 23.086 113.798 22.9729 113.667 22.8896C113.548 22.7944 113.321 22.6991 112.988 22.6039C112.667 22.4968 112.292 22.3837 111.863 22.2646C111.137 22.0503 110.566 21.8301 110.149 21.6039C109.732 21.3777 109.423 21.092 109.22 20.7468C109.018 20.4016 108.917 19.9671 108.917 19.4433C108.917 18.5147 109.28 17.8243 110.006 17.3719C110.744 16.9076 111.75 16.6755 113.024 16.6755C113.643 16.6755 114.292 16.741 114.97 16.8719C115.661 17.0029 116.178 17.1755 116.524 17.3898V19.6576C116.167 19.4195 115.69 19.223 115.095 19.0683C114.512 18.9135 113.964 18.8362 113.452 18.8362C113.048 18.8362 112.732 18.8778 112.506 18.9611C112.28 19.0326 112.167 19.1635 112.167 19.354C112.167 19.5326 112.28 19.6695 112.506 19.7647C112.732 19.8599 113.137 19.979 113.72 20.1218C114.101 20.2171 114.262 20.2587 114.202 20.2468C114.964 20.4492 115.553 20.6754 115.97 20.9254C116.387 21.1754 116.678 21.473 116.845 21.8182C117.024 22.1515 117.113 22.5801 117.113 23.1039C117.113 23.9253 116.756 24.58 116.042 25.0681C115.339 25.5443 114.315 25.7824 112.97 25.7824Z" fill="#3D3A2C"/>
<path d="M97.6602 16.9433H100.696V17.8005C101.493 17.0505 102.505 16.6755 103.731 16.6755C104.624 16.6755 105.416 16.866 106.106 17.2469C106.797 17.6159 107.332 18.1457 107.713 18.8362C108.094 19.5147 108.285 20.3064 108.285 21.2111C108.285 22.1039 108.094 22.9015 107.713 23.6039C107.332 24.2943 106.797 24.83 106.106 25.211C105.428 25.5919 104.636 25.7824 103.731 25.7824C103.16 25.7824 102.612 25.6931 102.089 25.5145C101.577 25.3479 101.148 25.1157 100.803 24.8181V29.4251H97.6602V16.9433ZM102.91 23.336C103.553 23.336 104.071 23.1456 104.463 22.7646C104.856 22.3837 105.053 21.8658 105.053 21.2111C105.053 20.5563 104.856 20.0445 104.463 19.6754C104.071 19.2945 103.553 19.104 102.91 19.104C102.434 19.104 102.005 19.229 101.624 19.479C101.243 19.7171 100.97 20.0445 100.803 20.4611V21.9789C100.97 22.3956 101.243 22.7289 101.624 22.9789C102.005 23.217 102.434 23.336 102.91 23.336Z" fill="#3D3A2C"/>
<path d="M92.8994 13.0328H96.0604V25.5146H92.8994V13.0328Z" fill="#3D3A2C"/>
<path d="M37.2065 25.7824C36.147 25.7824 35.2185 25.5919 34.4209 25.211C33.6233 24.8181 33.0042 24.2824 32.5638 23.6039C32.1352 22.9134 31.9209 22.1218 31.9209 21.2289C31.9209 20.3361 32.1352 19.5504 32.5638 18.8719C33.0042 18.1814 33.6233 17.6457 34.4209 17.2648C35.2185 16.8719 36.147 16.6755 37.2065 16.6755C38.266 16.6755 39.1945 16.8719 39.9921 17.2648C40.7897 17.6457 41.4028 18.1814 41.8314 18.8719C42.2718 19.5504 42.4921 20.3361 42.4921 21.2289C42.4921 22.1218 42.2718 22.9134 41.8314 23.6039C41.4028 24.2824 40.7897 24.8181 39.9921 25.211C39.1945 25.5919 38.266 25.7824 37.2065 25.7824ZM37.2065 23.336C37.8374 23.336 38.3374 23.1515 38.7065 22.7825C39.0874 22.4015 39.2779 21.8837 39.2779 21.2289C39.2779 20.5742 39.0874 20.0623 38.7065 19.6933C38.3374 19.3123 37.8374 19.1219 37.2065 19.1219C36.5756 19.1219 36.0696 19.3123 35.6887 19.6933C35.3196 20.0623 35.1351 20.5742 35.1351 21.2289C35.1351 21.8837 35.3196 22.4015 35.6887 22.7825C36.0696 23.1515 36.5756 23.336 37.2065 23.336Z" fill="#3D3A2C"/>
<path d="M25.5167 29.6216C24.9453 29.6216 24.3679 29.568 23.7846 29.4609C23.2132 29.3537 22.7191 29.2109 22.3025 29.0323V26.8538C23.2429 27.2585 24.3143 27.4609 25.5167 27.4609C26.3857 27.4609 27.0107 27.2823 27.3916 26.9252C27.7845 26.5681 27.9809 26.0443 27.9809 25.3538V24.836C27.6357 25.1336 27.2071 25.3657 26.6952 25.5324C26.1952 25.6991 25.6595 25.7824 25.0881 25.7824C24.1834 25.7824 23.3858 25.5919 22.6953 25.211C22.0049 24.83 21.4632 24.2943 21.0704 23.6039C20.6894 22.9134 20.499 22.1218 20.499 21.2289C20.499 20.3242 20.6894 19.5266 21.0704 18.8362C21.4513 18.1457 21.987 17.6159 22.6775 17.2469C23.3679 16.866 24.1596 16.6755 25.0524 16.6755C26.2786 16.6755 27.2904 17.0505 28.088 17.8005V16.9433H31.1237V24.9253C31.1237 26.4133 30.6653 27.5681 29.7487 28.3895C28.844 29.2109 27.4333 29.6216 25.5167 29.6216ZM25.8738 23.3539C26.3619 23.3539 26.7964 23.2289 27.1773 22.9789C27.5583 22.7289 27.8261 22.3956 27.9809 21.9789V20.479C27.8142 20.0623 27.5404 19.7349 27.1595 19.4968C26.7785 19.2469 26.35 19.1219 25.8738 19.1219C25.231 19.1219 24.7131 19.3123 24.3203 19.6933C23.9274 20.0623 23.731 20.5682 23.731 21.2111C23.731 21.8658 23.9274 22.3896 24.3203 22.7825C24.7131 23.1634 25.231 23.3539 25.8738 23.3539Z" fill="#3D3A2C"/>
<path d="M14.3276 25.7824C13.2681 25.7824 12.3395 25.5919 11.5419 25.211C10.7443 24.8181 10.1253 24.2824 9.68479 23.6039C9.25629 22.9134 9.04199 22.1218 9.04199 21.2289C9.04199 20.3361 9.25629 19.5504 9.68479 18.8719C10.1253 18.1814 10.7443 17.6457 11.5419 17.2648C12.3395 16.8719 13.2681 16.6755 14.3276 16.6755C15.3871 16.6755 16.3156 16.8719 17.1132 17.2648C17.9108 17.6457 18.5239 18.1814 18.9524 18.8719C19.3929 19.5504 19.6131 20.3361 19.6131 21.2289C19.6131 22.1218 19.3929 22.9134 18.9524 23.6039C18.5239 24.2824 17.9108 24.8181 17.1132 25.211C16.3156 25.5919 15.3871 25.7824 14.3276 25.7824ZM14.3276 23.336C14.9585 23.336 15.4585 23.1515 15.8275 22.7825C16.2085 22.4015 16.3989 21.8837 16.3989 21.2289C16.3989 20.5742 16.2085 20.0623 15.8275 19.6933C15.4585 19.3123 14.9585 19.1219 14.3276 19.1219C13.6966 19.1219 13.1907 19.3123 12.8098 19.6933C12.4407 20.0623 12.2562 20.5742 12.2562 21.2289C12.2562 21.8837 12.4407 22.4015 12.8098 22.7825C13.1907 23.1515 13.6966 23.336 14.3276 23.336Z" fill="#3D3A2C"/>
<path d="M0 13.0328H3.1606V22.854H8.58899V25.5146H0V13.0328Z" fill="#3D3A2C"/>
<path fill-rule="evenodd" clip-rule="evenodd" d="M62.6473 0C59.0879 0 56.2024 2.8855 56.2024 6.4449V7.69839C54.061 7.13889 51.6878 7.69809 50.0097 9.37619C47.4928 11.8931 47.4928 15.9738 50.0097 18.4907L50.896 19.377C48.9862 20.4956 47.7036 22.5691 47.7036 24.9422C47.7036 28.5016 50.5891 31.3871 54.1485 31.3871H55.4019C54.8424 33.5285 55.4016 35.9017 57.0797 37.5797C59.5966 40.0966 63.6773 40.0966 66.1942 37.5797L68.8378 34.9361C71.1699 32.604 72.2591 29.4996 72.1054 26.4462L76.1689 30.5096C78.6858 33.0265 82.7666 33.0265 85.2836 30.5096C87.8006 27.9927 87.8006 23.912 85.2836 21.3952L84.3976 20.509C86.3066 19.3904 87.5896 17.3169 87.5896 14.9438C87.5896 11.3844 84.7036 8.49889 81.1446 8.49889H79.8911C80.4507 6.3574 79.8914 3.9842 78.2133 2.3061C75.6965 -0.2108 71.6158 -0.2108 69.0989 2.3061L66.4552 4.9498C64.1231 7.28189 63.0339 10.3862 63.1876 13.4396L59.1242 9.37619C59.114 9.36609 59.1039 9.35599 59.0937 9.34589V6.4449C59.0937 4.4823 60.6847 2.8913 62.6473 2.8913C64.2414 2.8913 65.5903 3.9409 66.0407 5.3867C66.1742 5.2383 66.3123 5.0926 66.4551 4.9498L68.2125 3.1924C67.0939 1.2826 65.0204 0 62.6473 0ZM78.2436 11.3902C78.2335 11.4003 78.2235 11.4105 78.2133 11.4206L74.15 15.4839C77.0165 15.3397 79.9277 16.2907 82.2026 18.3372C83.6486 17.8868 84.6986 16.5378 84.6986 14.9438C84.6986 12.9812 83.1076 11.3902 81.1446 11.3902H78.2436ZM57.0493 28.4958C57.0594 28.4856 57.0695 28.4754 57.0797 28.4653L61.143 24.4019C58.2766 24.5462 55.3654 23.5951 53.0903 21.5488C51.6445 21.9992 50.5948 23.3481 50.5948 24.9422C50.5948 26.9048 52.1859 28.4958 54.1485 28.4958H57.0493ZM52.9795 21.4478C52.8692 21.3459 52.7605 21.2414 52.6534 21.1343V21.1344C52.7605 21.2415 52.8692 21.3459 52.9795 21.4478ZM72.6458 39.886C70.2726 39.886 68.1991 38.6033 67.0805 36.6935L68.8378 34.9361C68.9807 34.7933 69.1188 34.6476 69.2523 34.4992C69.7027 35.945 71.0516 36.9947 72.6458 36.9947C74.6084 36.9947 76.1994 35.4037 76.1994 33.4411V30.5401C77.0322 31.362 78.0332 31.9112 79.0907 32.1875V33.4411C79.0907 37.0005 76.2052 39.886 72.6458 39.886ZM76.1689 4.3505C74.7811 2.9628 72.5311 2.9628 71.1433 4.3505L68.4996 6.99419C65.5427 9.95119 65.2788 14.5814 67.708 17.837L76.1689 9.37609C77.5567 7.98829 77.5567 5.7383 76.1689 4.3505ZM83.2386 28.4652C84.6266 27.0774 84.6266 24.8274 83.2386 23.4396L80.5952 20.7959C77.6383 17.839 73.008 17.5751 69.7524 20.0043L78.2133 28.4652C79.6011 29.853 81.8516 29.853 83.2386 28.4652ZM64.1497 35.5353C62.7619 36.9231 60.5119 36.9231 59.1241 35.5353C57.7364 34.1475 57.7364 31.8975 59.1241 30.5097L67.585 22.0488C70.0142 25.3044 69.7503 29.9347 66.7934 32.8916L64.1497 35.5353ZM52.0541 11.4206C50.6664 12.8084 50.6664 15.0584 52.0541 16.4462L54.6978 19.0899C57.6548 22.0468 62.285 22.3107 65.5406 19.8815L57.0797 11.4206C55.6919 10.0329 53.4419 10.0329 52.0541 11.4206Z" fill="#3D3A2C"/>
<path fill-rule="evenodd" clip-rule="evenodd" d="M66.0403 5.38661C63.9939 7.66173 63.0429 10.573 63.1871 13.4395L59.1238 9.37613C59.1136 9.36603 59.1035 9.35593 59.0933 9.34583V6.44481C59.0933 4.48221 60.6843 2.89111 62.6469 2.89111C64.241 2.89111 65.5899 3.94081 66.0403 5.38661Z" fill="#EBE1C5"/>
<path fill-rule="evenodd" clip-rule="evenodd" d="M82.2025 18.3372C79.9276 16.2908 77.0163 15.3397 74.1499 15.4839L78.2132 11.4206C78.2234 11.4105 78.2334 11.4003 78.2435 11.3901H81.1446C83.1075 11.3901 84.6985 12.9812 84.6985 14.9438C84.6985 16.5379 83.6485 17.8868 82.2025 18.3372Z" fill="#EBCC6E"/>
<path fill-rule="evenodd" clip-rule="evenodd" d="M53.0901 21.5488C55.3652 23.5952 58.2765 24.5463 61.1429 24.402L57.0796 28.4654C57.0694 28.4755 57.0593 28.4857 57.0493 28.4958H54.1483C52.1857 28.4959 50.5947 26.9048 50.5947 24.9422C50.5947 23.3482 51.6443 21.9992 53.0901 21.5488Z" fill="#4F9E91"/>
<path fill-rule="evenodd" clip-rule="evenodd" d="M69.252 34.4992C71.2983 32.224 72.2494 29.3127 72.1051 26.4463L76.1685 30.5097C76.1786 30.5198 76.1888 30.5299 76.199 30.54V33.441C76.199 35.4036 74.608 36.9946 72.6454 36.9946C71.0513 36.9946 69.7024 35.945 69.252 34.4992Z" fill="#ED834E"/>
<path fill-rule="evenodd" clip-rule="evenodd" d="M52.0535 16.4462C50.6657 15.0584 50.6657 12.8084 52.0535 11.4206C53.4413 10.0328 55.6913 10.0328 57.0791 11.4206L65.54 19.8815C62.2844 22.3107 57.6541 22.0468 54.6972 19.0899L52.0535 16.4462Z" fill="#ED834E"/>
<path fill-rule="evenodd" clip-rule="evenodd" d="M64.1494 35.5353C62.7617 36.9231 60.5116 36.9231 59.1239 35.5353C57.7361 34.1475 57.7361 31.8975 59.1239 30.5097L67.5847 22.049C70.0139 25.3046 69.7501 29.9347 66.7931 32.8916L64.1494 35.5353Z" fill="#EBCC6E"/>
<path fill-rule="evenodd" clip-rule="evenodd" d="M83.2381 23.4397C84.6261 24.8274 84.6261 27.0775 83.2381 28.4652C81.8511 29.853 79.6007 29.853 78.2129 28.4652L69.752 20.0044C73.0076 17.5752 77.6378 17.839 80.5948 20.796L83.2381 23.4397Z" fill="#EBE1C5"/>
<path fill-rule="evenodd" clip-rule="evenodd" d="M71.1431 4.35047C72.5309 2.96277 74.7809 2.96277 76.1687 4.35047C77.5565 5.73827 77.5565 7.9883 76.1687 9.3761L67.7078 17.837C65.2786 14.5814 65.5425 9.9512 68.4995 6.9942L71.1431 4.35047Z" fill="#4F9E91"/>
</svg>
